Coordinates
version=1
nRows=10
nColumns=33
inDegrees=yes

Units are S.I. units (second, meters, Newtons, ...)
Angles are in degrees.

endheader
time	ground_thorax_rot_x	ground_thorax_rot_y	ground_thorax_rot_z	ground_thorax_tx	ground_thorax_ty	ground_thorax_tz	clav_prot_r	clav_elev_r	scapula_abduction_r	scapula_elevation_r	scapula_upward_rot_r	scapula_winging_r	shoulder_elv_r	plane_of_elev_r	axial_rot_r	elbow_flexion_r	pro_sup_r	wrist_flex_r	wrist_dev_r	clav_prot_l	clav_elev_l	scapula_abduction_l	scapula_elevation_l	scapula_upward_rot_l	scapula_winging_l	shoulder_elv_l	plane_of_elev_l	axial_rot_l	elbow_flexion_l	pro_sup_l	wrist_flex_l	wrist_dev_l
      3.87000000	    -38.85582570	    -14.73093940	     19.45001225	    -43.36827633	    788.86022537	    -36.22647785	     23.96034365	    -45.00000000	     34.38345787	    -45.00000000	    -45.00000000	  -2614.91134723	  -2445.82897883	     20.29938975	   -151.25778628	   1440.36063895	   -192.06502519	     13.08480498	     14.62456931	      3.45088420	     28.24472622	    -27.84357998	    -45.00000000	    -45.00000000	  -2805.07002808	  -1705.68685206	     17.34003953	   -179.99999979	   1801.88388805	    183.74129918	     11.95818228	    -14.91857514
      3.88000000	    -38.72356508	    -15.00058747	     19.62125722	    -46.98434977	    791.20443213	    -36.43727559	     24.19404009	    -45.00000000	     34.85740505	    -45.00000000	    -45.00000000	  -2615.39811562	  -2445.79236519	     20.20625401	   -151.60898314	   1440.56662965	   -192.43492213	     13.02181480	     14.70702062	      2.63214148	     28.55573682	    -27.75947481	    -45.00000000	    -45.00000000	  -2804.65834048	  -1705.85086840	     17.34612671	   -179.99999979	   1802.15303611	    184.25765477	     12.07273692	    -15.05419741
      3.89000000	    -38.89199353	    -14.64716610	     19.11324045	    -50.54886906	    793.62549492	    -36.65644893	     24.13508164	    -45.00000000	     34.76063571	    -45.00000000	    -45.00000000	  -2615.57841607	  -2445.67059877	     20.28556937	   -151.65812789	   1440.55786370	   -192.76414849	     13.03192102	     14.77715003	      2.57748672	     28.58656961	    -27.87173718	    -45.00000000	    -45.00000000	  -2804.37225402	  -1705.78119468	     17.44980222	   -179.99999979	   1802.10067789	    184.74992968	     12.15080302	    -15.20411416
      3.90000000	    -39.19828298	    -13.96259022	     18.26155793	    -54.06166852	    796.12274042	    -36.88535919	     23.87748392	    -45.00000000	     34.33767393	    -45.00000000	    -45.00000000	  -2615.57775801	  -2445.48137365	     20.45263984	   -151.62780329	   1440.43227320	   -193.01390295	     13.10441869	     14.77081549	      3.05090615	     28.54233902	    -28.00631755	    -45.00000000	    -45.00000000	  -2804.31733065	  -1705.46859887	     17.56851583	   -179.99999979	   1801.99197830	    185.10609900	     12.09452278	    -15.31448475
      3.91000000	    -39.25108081	    -13.91024149	     18.03784366	    -57.51856917	    798.69694522	    -37.12535769	     23.92174619	    -45.00000000	     34.49255128	    -45.00000000	    -45.00000000	  -2615.87010663	  -2445.40522445	     20.43142571	   -151.82592755	   1440.49448082	   -193.28930458	     13.14246117	     14.80747476	      2.69257530	     28.68995022	    -28.06459324	    -45.00000000	    -45.00000000	  -2803.96072176	  -1705.49555096	     17.57432458	   -179.99999979	   1802.04898490	    185.55073950	     12.16845150	    -15.47215534
      3.92000000	    -39.40504003	    -13.57246814	     17.49582138	    -60.91150911	    801.34516415	    -37.37804215	     23.87026675	    -45.00000000	     34.51191152	    -45.00000000	    -45.00000000	  -2616.05802763	  -2445.30748630	     20.51808993	   -151.83547151	   1440.48250813	   -193.51156653	     13.19869904	     14.83746119	      2.65056442	     28.74926428	    -28.12232952	    -45.00000000	    -45.00000000	  -2803.76176170	  -1705.36279056	     17.64889575	   -179.99999979	   1802.02490622	    185.99595851	     12.17789544	    -15.61711978
      3.93000000	    -39.64107826	    -12.98580967	     16.70353916	    -64.23612249	    804.07077554	    -37.64623842	     23.68625364	    -45.00000000	     34.30942926	    -45.00000000	    -45.00000000	  -2616.15403905	  -2445.14790676	     20.65606559	   -151.82417982	   1440.25566247	   -193.69511548	     13.33494247	     14.85060830	      2.97167991	     28.71256350	    -28.24421341	    -45.00000000	    -45.00000000	  -2803.61535722	  -1705.13045532	     17.75079804	   -179.99999979	   1801.84713583	    186.34766275	     12.14813993	    -15.75819093
      3.94000000	    -39.68398779	    -12.90427535	     16.46401886	    -67.48048073	    806.86957441	    -37.93223726	     23.74786468	    -45.00000000	     34.44035957	    -45.00000000	    -45.00000000	  -2616.41214154	  -2445.06648749	     20.66335736	   -151.97184758	   1440.37488754	   -193.89439660	     13.38937724	     14.86608382	      2.62901620	     28.85287149	    -28.33599061	    -45.00000000	    -45.00000000	  -2803.29019748	  -1705.14805451	     17.77233195	   -179.99999979	   1801.96429746	    186.76168256	     12.23068361	    -15.89160915
      3.95000000	    -39.79619262	    -12.58205512	     16.01047904	    -70.63503596	    809.73758997	    -38.23702221	     23.67983181	    -45.00000000	     34.31927430	    -45.00000000	    -45.00000000	  -2616.61628302	  -2444.92043226	     20.74413089	   -152.07442952	   1440.32339983	   -194.12530077	     13.48450612	     14.82684588	      2.69309436	     28.89345857	    -28.38051588	    -45.00000000	    -45.00000000	  -2803.14887337	  -1704.97582199	     17.80904789	   -179.99999979	   1801.95332607	    187.10830548	     12.19291281	    -16.01751737
      3.96000000	    -39.91551208	    -12.26197410	     15.48786516	    -73.68904953	    812.66361917	    -38.56018623	     23.59081858	    -45.00000000	     34.31098985	    -45.00000000	    -45.00000000	  -2616.78655989	  -2444.80565040	     20.82266534	   -152.17534651	   1440.24872013	   -194.36984511	     13.57398404	     14.83831131	      2.68112486	     28.94134849	    -28.50884398	    -45.00000000	    -45.00000000	  -2802.91575977	  -1704.88093233	     17.85184493	   -179.99999979	   1801.93102175	    187.39674553	     12.22343821	    -16.14726376
